<?xml version="1.0" standalone="no"?>
<!DOCTYPE svg PUBLIC "-//W3C//DTD SVG 20010904//EN"
 "http://www.w3.org/TR/2001/REC-SVG-20010904/DTD/svg10.dtd">
<svg version="1.0" xmlns="http://www.w3.org/2000/svg"
 width="225.000000pt" height="225.000000pt" viewBox="0 0 225.000000 225.000000"
 preserveAspectRatio="xMidYMid meet">

<g transform="translate(0.000000,225.000000) scale(0.100000,-0.100000)"
fill="#000000" stroke="none">
<path d="M894 1864 c-243 -40 -467 -153 -611 -308 -232 -249 -242 -573 -26
-831 268 -318 822 -442 1283 -289 350 117 572 353 605 644 7 63 -8 169 -35
246 -92 262 -400 480 -763 539 -113 18 -342 18 -453 -1z m471 -30 c236 -43
460 -161 594 -311 70 -78 135 -211 151 -304 59 -346 -214 -666 -670 -784 -143
-37 -378 -46 -531 -20 -365 61 -659 267 -748 526 -28 81 -38 208 -22 291 60
311 418 574 842 618 104 10 278 3 384 -16z"/>
<path d="M973 1547 c-47 -96 -116 -147 -199 -147 -67 0 -123 31 -194 106 l-61
66 -67 -69 c-75 -76 -141 -196 -162 -294 -19 -85 -9 -233 19 -294 l23 -50 16
25 c97 147 246 157 348 23 18 -23 34 -47 36 -54 3 -9 16 -4 41 15 117 89 259
5 337 -199 l12 -30 19 48 c51 127 147 217 234 217 40 0 68 -12 104 -44 23 -20
24 -20 35 -2 55 90 132 146 201 146 52 0 130 -46 164 -96 l30 -45 15 23 c73
114 54 339 -43 499 -32 54 -146 180 -160 178 -3 0 -24 -24 -46 -52 -74 -94
-180 -137 -268 -108 -47 16 -111 81 -134 136 -10 25 -20 45 -23 45 -3 0 -12
-13 -22 -29 -47 -84 -170 -84 -214 0 -8 16 -16 29 -17 29 -2 0 -12 -19 -24
-43z"/>
</g>
</svg>
