<?xml version="1.0" standalone="no"?>
<!DOCTYPE svg PUBLIC "-//W3C//DTD SVG 20010904//EN"
 "http://www.w3.org/TR/2001/REC-SVG-20010904/DTD/svg10.dtd">
<svg version="1.0" xmlns="http://www.w3.org/2000/svg"
 width="225.000000pt" height="225.000000pt" viewBox="0 0 225.000000 225.000000"
 preserveAspectRatio="xMidYMid meet">
<metadata>
Created by potrace 1.15, written by Peter Selinger 2001-2017
</metadata>
<g transform="translate(0.000000,225.000000) scale(0.100000,-0.100000)"
fill="#000000" stroke="none">
<path d="M931 2025 c-314 -71 -559 -265 -691 -549 -66 -140 -84 -228 -84 -406
0 -113 4 -174 17 -224 102 -408 433 -699 850 -747 480 -56 933 265 1054 747
27 108 24 352 -6 464 -90 337 -341 595 -678 696 -75 23 -111 27 -243 30 -110
3 -174 -1 -219 -11z m469 -450 l0 -105 -71 0 c-104 0 -109 -5 -109 -100 l0
-80 88 0 c49 0 91 -2 93 -5 3 -2 0 -50 -6 -107 l-10 -103 -85 -3 -85 -3 3
-299 3 -300 -131 0 -130 0 0 300 0 300 -60 0 -61 0 3 108 3 107 56 3 56 3 5
102 c10 216 89 286 326 287 l112 0 0 -105z"/>
</g>
</svg>
