<?xml version="1.0" standalone="no"?>
<!DOCTYPE svg PUBLIC "-//W3C//DTD SVG 20010904//EN"
 "http://www.w3.org/TR/2001/REC-SVG-20010904/DTD/svg10.dtd">
<svg version="1.0" xmlns="http://www.w3.org/2000/svg"
 width="225.000000pt" height="225.000000pt" viewBox="0 0 225.000000 225.000000"
 preserveAspectRatio="xMidYMid meet">
<metadata>
Created by potrace 1.15, written by Peter Selinger 2001-2017
</metadata>
<g transform="translate(0.000000,225.000000) scale(0.100000,-0.100000)"
fill="#000000" stroke="none">
<path d="M598 2240 c-216 -37 -407 -186 -508 -395 -27 -55 -55 -129 -64 -165
-52 -220 -19 -458 95 -680 95 -185 244 -351 529 -589 191 -160 251 -217 330
-313 109 -132 181 -132 291 2 75 92 162 175 313 297 154 125 370 339 443 438
190 256 263 570 197 845 -9 36 -37 110 -64 165 -191 398 -680 529 -975 262
l-60 -54 -60 54 c-124 113 -296 162 -467 133z m220 -149 c78 -24 112 -47 198
-137 64 -67 75 -74 109 -74 35 0 45 7 103 70 114 123 213 167 352 157 344 -24
582 -374 520 -767 -47 -293 -226 -535 -650 -875 -105 -84 -228 -203 -283 -274
l-41 -53 -30 38 c-66 85 -179 193 -341 329 -365 305 -509 487 -581 732 -112
387 74 776 411 859 74 18 165 16 233 -5z"/>
<path d="M610 1954 c-165 -44 -295 -206 -322 -402 -10 -77 -10 -85 9 -110 23
-31 68 -40 97 -19 14 10 22 33 28 83 10 90 34 153 78 211 46 62 112 102 180
110 31 4 61 14 72 25 27 27 23 72 -8 97 -31 24 -58 25 -134 5z"/>
</g>
</svg>
