<?xml version="1.0" standalone="no"?>
<!DOCTYPE svg PUBLIC "-//W3C//DTD SVG 20010904//EN"
 "http://www.w3.org/TR/2001/REC-SVG-20010904/DTD/svg10.dtd">
<svg version="1.0" xmlns="http://www.w3.org/2000/svg"
 width="800.000000pt" height="800.000000pt" viewBox="0 0 800.000000 800.000000"
 preserveAspectRatio="xMidYMid meet">
<metadata>
Created by potrace 1.15, written by Peter Selinger 2001-2017
</metadata>
<g transform="translate(0.000000,800.000000) scale(0.100000,-0.100000)"
fill="#000000" stroke="none">
<path d="M3770 7340 c-218 -57 -411 -213 -511 -415 -57 -116 -80 -216 -80
-355 0 -185 46 -327 153 -471 107 -143 235 -232 414 -289 96 -31 271 -38 377
-16 250 51 464 222 567 450 54 121 64 170 65 326 0 162 -15 232 -80 360 -104
206 -318 371 -543 419 -85 18 -275 13 -362 -9z"/>
<path d="M3568 5445 c-86 -17 -218 -81 -285 -136 -29 -24 -177 -161 -331 -304
-153 -143 -332 -309 -398 -370 -661 -608 -743 -687 -771 -744 -22 -44 -29 -73
-31 -136 -5 -112 21 -180 99 -256 79 -78 145 -103 254 -96 123 7 148 23 388
244 485 448 512 473 521 473 3 0 4 -235 2 -522 -3 -405 -8 -587 -24 -808 -24
-318 -36 -487 -53 -730 -6 -91 -21 -309 -33 -485 -14 -201 -19 -343 -14 -382
14 -121 97 -234 215 -294 64 -32 72 -34 172 -34 94 0 113 3 162 26 96 45 174
129 213 229 11 28 21 94 27 175 5 72 14 195 19 275 6 80 19 280 30 445 11 165
25 356 30 424 6 68 10 132 10 143 0 17 10 18 198 16 l197 -3 12 -170 c17 -241
41 -594 54 -775 32 -467 35 -494 62 -553 36 -79 72 -123 136 -166 74 -50 140
-71 221 -71 167 0 297 84 366 235 34 74 39 145 25 331 -10 142 -19 264 -76
1094 -14 201 -29 423 -35 494 -13 165 -13 1109 -1 1104 5 -1 34 -26 63 -53 51
-49 215 -201 443 -411 271 -249 271 -249 415 -249 81 0 102 4 140 24 81 42
127 88 162 159 30 59 33 76 33 152 0 72 -4 94 -27 140 -14 30 -39 69 -55 85
-25 27 -270 255 -568 530 -122 112 -337 310 -520 479 -65 61 -162 152 -215
202 -180 173 -263 226 -414 264 -72 18 -111 20 -415 19 -236 -1 -356 -5 -403
-14z"/>
</g>
</svg>
