<?xml version="1.0" standalone="no"?>
<!DOCTYPE svg PUBLIC "-//W3C//DTD SVG 20010904//EN"
 "http://www.w3.org/TR/2001/REC-SVG-20010904/DTD/svg10.dtd">
<svg version="1.0" xmlns="http://www.w3.org/2000/svg"
 width="225.000000pt" height="225.000000pt" viewBox="0 0 225.000000 225.000000"
 preserveAspectRatio="xMidYMid meet">
<metadata>
Created by potrace 1.15, written by Peter Selinger 2001-2017
</metadata>
<g transform="translate(0.000000,225.000000) scale(0.100000,-0.100000)"
fill="#000000" stroke="none">
<path d="M872 2164 c-42 -29 -30 -74 44 -172 l66 -87 -349 -5 c-302 -4 -353
-7 -386 -22 -66 -30 -115 -76 -144 -136 l-28 -57 0 -705 0 -705 30 -53 c32
-59 66 -91 129 -125 l41 -22 850 0 850 0 41 22 c63 34 97 66 129 125 l30 53 0
705 0 705 -28 57 c-29 60 -78 106 -144 136 -33 15 -84 18 -386 22 l-349 5 67
88 c58 76 66 93 63 125 -2 27 -10 40 -29 51 -45 25 -69 9 -153 -104 -43 -58
-82 -107 -86 -110 -5 -3 -44 41 -86 97 -42 57 -84 109 -92 116 -21 16 -53 15
-80 -4z m1087 -422 c19 -9 44 -30 55 -45 21 -28 21 -39 24 -705 2 -662 2 -678
-18 -710 -11 -18 -34 -41 -52 -52 -32 -19 -52 -20 -843 -20 -791 0 -811 1
-843 20 -18 11 -41 34 -52 52 -20 32 -20 48 -18 710 3 666 3 677 24 705 11 15
36 36 55 45 32 17 92 18 834 18 742 0 802 -1 834 -18z"/>
<path d="M815 1122 c-278 -72 -301 -79 -314 -104 -20 -35 -6 -78 32 -96 24
-12 52 -7 261 48 129 33 241 60 250 60 14 0 16 -15 16 -104 0 -120 4 -134 37
-147 37 -14 621 133 646 162 19 24 22 51 6 80 -22 42 -45 41 -303 -25 -136
-34 -249 -60 -251 -57 -3 2 -5 52 -5 110 0 58 -4 111 -8 117 -8 13 -47 34 -59
33 -4 0 -143 -35 -308 -77z"/>
</g>
</svg>
