<?xml version="1.0" standalone="no"?>
<!DOCTYPE svg PUBLIC "-//W3C//DTD SVG 20010904//EN"
 "http://www.w3.org/TR/2001/REC-SVG-20010904/DTD/svg10.dtd">
<svg version="1.0" xmlns="http://www.w3.org/2000/svg"
 width="200.000000pt" height="200.000000pt" viewBox="0 0 200.000000 200.000000"
 preserveAspectRatio="xMidYMid meet">
<metadata>
Created by potrace 1.15, written by Peter Selinger 2001-2017
</metadata>
<g transform="translate(0.000000,200.000000) scale(0.100000,-0.100000)"
fill="#000000" stroke="none">
<path d="M251 1290 l-163 -290 163 -290 163 -290 197 0 197 0 -164 290 -164
290 164 290 164 290 -197 0 -197 0 -163 -290z"/>
<path d="M791 1294 c-89 -157 -161 -290 -161 -294 0 -4 72 -137 161 -294 l161
-286 199 0 200 0 -25 42 c-13 24 -87 154 -164 291 l-140 247 140 248 c77 136
151 266 164 290 l25 42 -200 0 -199 0 -161 -286z"/>
<path d="M1331 1290 l-163 -290 163 -290 163 -290 197 0 197 0 -164 290 -164
290 164 290 164 290 -197 0 -197 0 -163 -290z"/>
</g>
</svg>
