<?xml version="1.0" encoding="iso-8859-1"?>
<!-- Generator: Adobe Illustrator 19.0.0, SVG Export Plug-In . SVG Version: 6.00 Build 0)  -->
<svg version="1.1" id="Capa_1" xmlns="http://www.w3.org/2000/svg" xmlns:xlink="http://www.w3.org/1999/xlink" x="0px" y="0px"
	 viewBox="0 0 512 512" style="enable-background:new 0 0 512 512;" xml:space="preserve">
<g>
	<g>
		<path d="M256,0C114.844,0,0,114.844,0,256s114.844,256,256,256s256-114.844,256-256S397.156,0,256,0z M71.906,214.479
			c-21.634,12.488-37.397,25.236-50.51,40.279C21.79,179.77,57.63,113.165,112.882,70.449c26.154,0.944,48.665,7.852,76.358,23.842
			c28.104,16.229,50.479,43.094,61.385,73.729c8.288,23.294,9.022,46.622,2.839,66.566C213.41,188.96,133.99,178.624,71.906,214.479
			z M256,490.667c-31.497,0-61.518-6.333-88.986-17.638c-12.378-23.234-17.681-46.24-17.681-78.362
			c0-60.03,40.854-115.113,89.507-125.94c-8.337,24.855-7.716,53.863,2.441,82.409c12.573,35.333,38.385,66.333,70.813,85.052
			c21.539,12.438,40.389,19.697,59.889,23.548C337.729,479.314,298.199,490.667,256,490.667z M429.427,279.042
			c-51.931,29.984-119.801,22.059-153.536-14.546C335.392,252.591,384,189.021,384,117.333c0-24.835-3.131-44.77-9.522-63.553
			c60.819,35.775,104.074,98.044,113.853,170.928C474.424,246.953,457.171,263.021,429.427,279.042z"/>
	</g>
</g>
<g>
</g>
<g>
</g>
<g>
</g>
<g>
</g>
<g>
</g>
<g>
</g>
<g>
</g>
<g>
</g>
<g>
</g>
<g>
</g>
<g>
</g>
<g>
</g>
<g>
</g>
<g>
</g>
<g>
</g>
</svg>
