<?xml version="1.0" standalone="no"?>
<!DOCTYPE svg PUBLIC "-//W3C//DTD SVG 20010904//EN"
 "http://www.w3.org/TR/2001/REC-SVG-20010904/DTD/svg10.dtd">
<svg version="1.0" xmlns="http://www.w3.org/2000/svg"
 width="200.000000pt" height="200.000000pt" viewBox="0 0 200.000000 200.000000"
 preserveAspectRatio="xMidYMid meet">
<metadata>
Created by potrace 1.15, written by Peter Selinger 2001-2017
</metadata>
<g transform="translate(0.000000,200.000000) scale(0.100000,-0.100000)"
fill="#000000" stroke="none">
<path d="M98 1548 c67 -113 302 -538 302 -548 0 -10 -235 -435 -302 -547 l-20
-33 205 0 205 0 161 285 c89 156 161 289 161 295 0 6 -72 139 -161 295 l-161
285 -205 0 -205 0 20 -32z"/>
<path d="M638 1548 c67 -113 302 -538 302 -548 0 -10 -235 -435 -302 -547
l-20 -33 205 0 205 0 161 285 c89 156 161 289 161 295 0 6 -72 139 -161 295
l-161 285 -205 0 -205 0 20 -32z"/>
<path d="M1178 1548 c67 -113 302 -538 302 -548 0 -10 -235 -435 -302 -547
l-20 -33 205 0 205 0 161 285 c89 156 161 289 161 295 0 6 -72 139 -161 295
l-161 285 -205 0 -205 0 20 -32z"/>
</g>
</svg>
