<?xml version="1.0" standalone="no"?>
<!DOCTYPE svg PUBLIC "-//W3C//DTD SVG 20010904//EN"
 "http://www.w3.org/TR/2001/REC-SVG-20010904/DTD/svg10.dtd">
<svg version="1.0" xmlns="http://www.w3.org/2000/svg"
 width="255.000000pt" height="197.000000pt" viewBox="0 0 255.000000 197.000000"
 preserveAspectRatio="xMidYMid meet">

<g transform="translate(0.000000,197.000000) scale(0.100000,-0.100000)"
fill="#000000" stroke="none">
<path d="M252 1727 c-133 -133 -242 -245 -242 -248 0 -12 1210 -1464 1220
-1464 10 0 1310 1454 1310 1466 0 4 -101 112 -225 241 l-224 235 -302 6 c-166
4 -525 7 -798 7 l-496 0 -243 -243z m476 70 c-10 -7 -45 -28 -79 -47 -90 -50
-179 -142 -220 -226 -32 -64 -34 -76 -34 -164 l0 -96 -92 105 -92 105 162 167
162 167 105 1 c85 0 102 -2 88 -12z m1062 2 c0 -7 -10 -44 -21 -83 -19 -61
-23 -68 -33 -52 -24 41 -71 88 -112 112 -24 14 -44 28 -44 30 0 2 47 4 105 4
72 0 105 -4 105 -11z m411 -184 c74 -75 135 -139 137 -143 2 -6 -256 -311
-312 -370 -11 -11 -18 -3 -40 41 -63 129 -200 179 -541 197 -530 29 -578 36
-641 95 -29 27 -34 39 -34 77 0 85 78 158 214 201 97 30 357 32 451 4 120 -37
187 -106 207 -215 l12 -62 200 2 201 3 3 153 c1 83 4 152 6 152 1 0 63 -61
137 -135z m-1601 -570 c84 -30 234 -45 548 -55 406 -13 502 -26 562 -76 18
-16 30 -35 30 -50 0 -80 -210 -162 -385 -151 -77 5 -80 7 -109 42 -54 67 -182
115 -307 115 -88 0 -120 -9 -153 -45 l-23 -25 -102 115 c-56 63 -114 129 -129
147 l-27 32 25 -17 c14 -9 46 -23 70 -32z m570 -486 c96 -13 223 -7 319 16 35
9 65 14 67 12 6 -6 -301 -325 -312 -324 -10 2 -296 320 -302 336 -1 4 30 0 70
-10 40 -10 111 -24 158 -30z"/>
</g>
</svg>
